<?xml version="1.0" encoding="UTF-8" standalone="no"?>
<!DOCTYPE svg PUBLIC "-//W3C//DTD SVG 1.1//EN" "http://www.w3.org/Graphics/SVG/1.1/DTD/svg11.dtd">
<svg width="100%" height="100%" viewBox="0 0 1459 1546" version="1.1" xmlns="http://www.w3.org/2000/svg" xmlns:xlink="http://www.w3.org/1999/xlink" xml:space="preserve" xmlns:serif="http://www.serif.com/" style="fill-rule:evenodd;clip-rule:evenodd;stroke-linejoin:round;stroke-miterlimit:2;">
    <g transform="matrix(4.16667,0,0,4.16667,0,0)">
        <path d="M121.621,368.105C122.18,368.105 122.686,368.033 123.143,367.888C123.598,367.744 123.988,367.518 124.316,367.212C124.643,366.907 124.895,366.518 125.072,366.046C125.248,365.575 125.338,365.017 125.338,364.374L125.338,362.234C125.338,361.591 125.273,361.02 125.145,360.521C125.016,360.023 124.805,359.604 124.51,359.266C124.215,358.929 123.83,358.671 123.359,358.495C122.887,358.318 122.309,358.229 121.621,358.229L120.432,358.229L120.432,368.105L121.621,368.105ZM121.236,355.286C121.793,355.286 122.303,355.218 122.764,355.084C123.225,354.951 123.619,354.742 123.945,354.458C124.273,354.173 124.525,353.803 124.701,353.347C124.879,352.892 124.967,352.342 124.967,351.699L124.967,350.573C124.967,349.929 124.902,349.361 124.775,348.868C124.646,348.374 124.434,347.957 124.139,347.613C123.844,347.27 123.457,347.01 122.98,346.833C122.504,346.656 121.922,346.568 121.236,346.568L120.432,346.568L120.432,355.286L121.236,355.286ZM116.346,343.528L120.561,343.528C121.182,343.528 121.826,343.549 122.49,343.592C123.154,343.635 123.805,343.726 124.438,343.866C125.068,344.004 125.67,344.211 126.238,344.485C126.807,344.758 127.303,345.125 127.727,345.586C128.149,346.047 128.485,346.619 128.74,347.299C128.99,347.981 129.117,348.798 129.117,349.752L129.117,351.087C129.117,351.817 129.014,352.487 128.802,353.098C128.593,353.709 128.317,354.249 127.975,354.714C127.633,355.181 127.24,355.567 126.801,355.873C126.361,356.178 125.91,356.385 125.449,356.492L125.449,356.621C126.813,356.868 127.838,357.513 128.529,358.559C129.223,359.604 129.567,360.942 129.567,362.572L129.567,363.971C129.567,364.968 129.457,365.834 129.238,366.569C129.018,367.304 128.709,367.931 128.313,368.451C127.916,368.971 127.445,369.398 126.898,369.73C126.352,370.062 125.75,370.323 125.096,370.51C124.441,370.698 123.744,370.827 123.006,370.896C122.266,370.965 121.504,371 120.721,371L116.346,371L116.346,343.528Z" style="fill:rgb(35,31,32);fill-rule:nonzero;"/>
        <path d="M139.119,357.714C139.848,357.714 140.465,357.634 140.969,357.473C141.473,357.312 141.879,357.041 142.191,356.661C142.502,356.281 142.727,355.776 142.865,355.149C143.006,354.522 143.076,353.747 143.076,352.825L143.076,350.653C143.076,349.946 143.012,349.334 142.883,348.82C142.754,348.305 142.537,347.881 142.23,347.548C141.926,347.216 141.52,346.969 141.016,346.809C140.512,346.648 139.879,346.568 139.119,346.568L138.49,346.568L138.49,357.714L139.119,357.714ZM134.406,343.528L138.926,343.528C139.439,343.528 140.006,343.549 140.623,343.592C141.238,343.635 141.855,343.74 142.473,343.906C143.088,344.072 143.684,344.321 144.258,344.654C144.83,344.986 145.34,345.442 145.785,346.021C146.23,346.6 146.588,347.327 146.855,348.2C147.123,349.075 147.258,350.133 147.258,351.376L147.258,352.069C147.258,354.16 146.957,355.862 146.357,357.175C145.756,358.489 144.871,359.435 143.703,360.014L148.109,371L143.703,371L140.051,360.722L138.49,360.722L138.49,371L134.406,371L134.406,343.528Z" style="fill:rgb(35,31,32);fill-rule:nonzero;"/>
        <path d="M152.482,343.528L162.664,343.528L162.664,346.809L156.648,346.809L156.648,355.028L161.297,355.028L161.297,358.309L156.648,358.309L156.648,367.719L162.824,367.719L162.824,371L152.482,371L152.482,343.528Z" style="fill:rgb(35,31,32);fill-rule:nonzero;"/>
        <path d="M165.297,343.528L169.287,343.528L171.137,360.127L171.346,364.003L171.748,364.003L172.135,359.645L175.094,343.528L178.424,343.528L181.254,359.645L181.576,364.003L181.994,364.003L182.188,360.127L183.875,343.528L187.881,343.528L184.037,371L179.807,371L177.539,357.794L176.83,352.052L176.51,352.052L175.816,357.794L173.438,371L169.254,371L165.297,343.528Z" style="fill:rgb(35,31,32);fill-rule:nonzero;"/>
        <path d="M192.061,343.528L202.242,343.528L202.242,346.809L196.227,346.809L196.227,355.028L200.875,355.028L200.875,358.309L196.227,358.309L196.227,367.719L202.402,367.719L202.402,371L192.061,371L192.061,343.528Z" style="fill:rgb(35,31,32);fill-rule:nonzero;"/>
        <path d="M211.344,357.714C212.072,357.714 212.689,357.634 213.193,357.473C213.697,357.312 214.104,357.041 214.416,356.661C214.727,356.281 214.951,355.776 215.09,355.149C215.23,354.522 215.301,353.747 215.301,352.825L215.301,350.653C215.301,349.946 215.236,349.334 215.107,348.82C214.979,348.305 214.762,347.881 214.455,347.548C214.15,347.216 213.744,346.969 213.24,346.809C212.736,346.648 212.104,346.568 211.344,346.568L210.715,346.568L210.715,357.714L211.344,357.714ZM206.631,343.528L211.15,343.528C211.664,343.528 212.23,343.549 212.848,343.592C213.463,343.635 214.08,343.74 214.697,343.906C215.313,344.072 215.908,344.321 216.482,344.654C217.055,344.986 217.564,345.442 218.01,346.021C218.455,346.6 218.813,347.327 219.08,348.2C219.348,349.075 219.482,350.133 219.482,351.376L219.482,352.069C219.482,354.16 219.182,355.862 218.582,357.175C217.98,358.489 217.096,359.435 215.928,360.014L220.334,371L215.928,371L212.275,360.722L210.715,360.722L210.715,371L206.631,371L206.631,343.528Z" style="fill:rgb(35,31,32);fill-rule:nonzero;"/>
        <path d="M227.971,361.848L222.438,343.528L226.637,343.528L229.998,356.668L230.191,356.668L233.521,343.528L237.703,343.528L232.137,361.848L232.137,371L227.971,371L227.971,361.848Z" style="fill:rgb(35,31,32);fill-rule:nonzero;"/>
        <path d="M86.699,296.558L87.068,304.676L87.068,296.605L86.699,296.558Z" style="fill:rgb(35,31,32);fill-rule:nonzero;"/>
        <path d="M98.648,264.86L98.648,291.129C98.976,282.325 99.046,273.551 98.648,264.86Z" style="fill:rgb(35,31,32);fill-rule:nonzero;"/>
        <path d="M33.451,235.631L33.451,271.763L14.572,271.763L14.572,235.631L4.777,235.631C4.222,235.685 3.664,235.738 3.109,235.792L3.109,247.212L3.048,282.849C3.23,286.293 3.376,289.761 3.443,293.197C3.675,305.038 3.396,316.761 3.482,328.276L14.572,328.276L14.572,283.343L33.451,283.343L33.451,286.318L33.962,286.617L33.99,287.686L35.009,328.276L44.914,328.276L44.914,316.696L45.029,247.212L45.029,243.665C44.834,240.983 44.63,238.306 44.423,235.631L33.451,235.631Z" style="fill:rgb(35,31,32);fill-rule:nonzero;"/>
        <path d="M87.197,307.518L87.068,307.499L87.068,310.906C87.068,312.835 86.564,314.283 85.562,315.248C84.558,316.214 83.13,316.696 81.277,316.696L73.982,316.696C72.05,316.696 70.603,316.195 69.638,315.19C68.671,314.187 68.191,312.758 68.191,310.906L68.191,268.765C67.984,263.105 67.947,257.444 67.962,251.801L68.261,251.992C68.414,250.568 68.88,249.446 69.697,248.66C70.699,247.695 72.128,247.212 73.982,247.212L81.277,247.212C83.207,247.212 84.654,247.715 85.621,248.717C86.585,249.721 87.068,251.149 87.068,253.001L87.068,276.375C87.226,283.186 87.359,289.973 87.781,296.695L87.068,296.605L87.068,304.676L87.197,307.518ZM98.648,291.129L98.648,264.86C98.599,263.81 98.554,262.759 98.492,261.71L98.648,261.799L98.648,253.001C98.648,247.367 97.16,243.062 94.191,240.09C91.216,237.119 86.912,235.631 81.277,235.631L73.982,235.631C70.755,235.631 67.98,236.135 65.627,237.11C64.205,237.901 62.834,238.749 61.539,239.672C61.384,239.814 61.216,239.942 61.07,240.09C58.097,243.062 56.611,247.367 56.611,253.001L56.611,310.906C56.611,316.541 58.097,320.846 61.07,323.818C64.041,326.791 68.345,328.276 73.982,328.276L81.277,328.276C86.912,328.276 91.216,326.791 94.191,323.818C95.525,322.482 96.544,320.862 97.279,318.988C97.675,312.089 98.064,305.196 98.335,298.319C98.457,295.92 98.558,293.525 98.648,291.129Z" style="fill:rgb(35,31,32);fill-rule:nonzero;"/>
        <path d="M140.688,280.564C140.688,282.495 140.184,283.942 139.182,284.906C138.176,285.874 136.75,286.355 134.896,286.355L121.811,286.355L121.811,247.212L134.896,247.212C136.824,247.212 138.273,247.715 139.238,248.717C140.203,249.721 140.688,251.149 140.688,253.001L140.688,280.564ZM134.896,235.631L110.229,235.631L110.229,317.789C110.314,319.165 110.385,320.542 110.482,321.917L110.229,321.887L110.229,328.276L121.811,328.276L121.811,297.934L134.896,297.934C140.609,297.934 144.932,296.449 147.867,293.477C150.801,290.505 152.268,286.201 152.268,280.564L152.268,253.001C152.268,247.29 150.801,242.966 147.867,240.032C144.932,237.098 140.609,235.631 134.896,235.631Z" style="fill:rgb(35,31,32);fill-rule:nonzero;"/>
        <path d="M174.939,317.958L175.641,316.696L174.326,316.696L174.326,288.801L174.285,288.12L174.326,288.142L174.326,235.631L162.744,235.631L162.744,260.854C163.574,268.616 163.578,276.499 162.744,284.338L162.744,328.276L192.26,328.276L192.26,316.834L184.789,317.368L174.939,317.958Z" style="fill:rgb(35,31,32);fill-rule:nonzero;"/>
        <path d="M230.299,310.906C230.299,312.835 229.795,314.283 228.793,315.248C227.789,316.214 226.361,316.696 224.508,316.696L217.213,316.696C215.281,316.696 213.834,316.195 212.869,315.19C211.904,314.187 211.422,312.758 211.422,310.906L211.422,253.001C211.422,251.073 211.924,249.625 212.928,248.66C213.93,247.695 215.359,247.212 217.213,247.212L224.508,247.212C226.438,247.212 227.885,247.715 228.852,248.717C229.816,249.721 230.299,251.149 230.299,253.001L230.299,259.044L230.705,259.315L230.668,260.416C230.137,276.865 230.199,293.306 230.836,309.698L230.299,309.618L230.299,310.906ZM240.311,244.423C239.592,242.759 238.637,241.307 237.422,240.09C234.447,237.119 230.143,235.631 224.508,235.631L217.213,235.631C211.576,235.631 207.271,237.119 204.301,240.09C201.328,243.062 199.842,247.367 199.842,253.001L199.842,310.906C199.842,316.541 201.328,320.846 204.301,323.818C207.271,326.791 211.576,328.276 217.213,328.276L224.508,328.276C230.143,328.276 234.447,326.791 237.422,323.818C240.391,320.846 241.879,316.541 241.879,310.906L241.879,285.238C241.643,281.775 241.43,278.309 241.25,274.842C240.84,264.684 240.629,254.529 240.311,244.423Z" style="fill:rgb(35,31,32);fill-rule:nonzero;"/>
        <path d="M283.918,286.239L265.041,286.239L265.041,252.886C265.041,250.958 265.543,249.51 266.547,248.543C267.549,247.58 268.979,247.095 270.832,247.095L278.127,247.095C280.055,247.095 281.504,247.598 282.469,248.601C283.434,249.606 283.918,251.033 283.918,252.886L283.918,270.297C284.242,273.564 284.406,276.854 284.383,280.154L283.918,280.062L283.918,286.239ZM295.068,249.624L295.313,249.776C294.848,245.649 293.434,242.371 291.039,239.973C288.066,237.002 283.762,235.515 278.127,235.515L270.832,235.515C265.195,235.515 260.89,237.002 257.918,239.973C254.945,242.947 253.459,247.251 253.459,252.886L253.459,265.162C254.063,276.503 253.848,287.886 253.479,299.176L253.459,299.172L253.459,328.16L265.041,328.16L265.041,297.819L283.918,297.819L283.918,328.16L295.498,328.16L295.498,295.4C295.365,292.245 295.26,289.087 295.18,285.931C295.018,273.782 295.186,261.654 295.068,249.624Z" style="fill:rgb(35,31,32);fill-rule:nonzero;"/>
        <path d="M337.42,310.906C337.42,314.766 335.488,316.696 331.631,316.696L318.658,316.696L318.658,279.443C318.338,272.959 318.133,266.464 318.059,259.959L318.658,260.332L318.658,247.212L331.631,247.212C333.559,247.212 335.006,247.715 335.973,248.717C336.936,249.721 337.42,251.149 337.42,253.001L337.42,310.906ZM344.6,240.032C341.666,237.098 337.342,235.631 331.631,235.631L307.078,235.631L307.078,328.276L331.631,328.276C337.266,328.276 341.57,326.791 344.541,323.818C347.514,320.846 349,316.541 349,310.906L349,263.119C348.762,257.567 348.508,252.038 348.201,246.531C347.486,243.906 346.295,241.729 344.6,240.032Z" style="fill:rgb(35,31,32);fill-rule:nonzero;"/>
        <path d="M174.326,288.801L174.326,288.142L174.285,288.12L174.326,288.801Z" style="fill:rgb(35,31,32);fill-rule:nonzero;"/>
        <path d="M209.496,168.349C215.432,160.029 221.537,151.818 227.834,143.743L228.441,142.966L226.617,138.006C222.297,143.656 218.084,149.378 213.938,155.142L211.191,153.064C213.512,148.331 216.041,143.687 218.791,139.163L219.109,138.64L217.637,135.693C214.842,140.312 212.262,145.044 209.904,149.87C209.645,150.416 209.396,150.966 209.143,151.514L205.982,149.123C209.051,142.908 212.615,136.91 216.672,131.227L217.086,130.65C216.598,129.475 216.117,128.289 215.648,127.089C211.941,132.221 208.615,137.594 205.695,143.151C204.986,144.542 204.309,145.947 203.648,147.357L168.371,120.663L167.332,119.874L160.818,122.405L188.225,142.526L197.477,149.159C185.451,142.75 173.576,136.022 161.9,128.929L160.99,128.376L155.893,130.957C163.893,135.715 171.971,140.317 180.125,144.759C186.818,148.305 193.557,151.743 200.342,155.071C200.016,155.907 199.686,156.742 199.377,157.583L201.6,158.987C202.299,157.213 203.053,155.458 203.83,153.712L207.107,156.062C206.225,158.121 205.381,160.194 204.58,162.281L206.471,163.516C207.305,161.492 208.182,159.481 209.092,157.485L211.172,158.975C208.723,162.515 206.314,166.079 203.93,169.656L204.035,169.151C197.748,171.499 191.537,174.019 185.414,176.707C182.471,178.039 179.553,179.419 176.652,180.827L146.439,172L147.164,171.602C145.195,169.216 143.199,166.857 141.178,164.521C143.143,165.969 145.117,167.402 147.113,168.802L149.602,166.5C138.73,158.457 128.315,149.729 118.455,140.363L119.963,120.761C123.957,123.333 128.018,125.788 132.145,128.105C136.447,130.455 140.811,132.67 145.232,134.735L146.273,133.364C147.082,133.632 147.896,133.879 148.715,134.082C148.76,133.493 172.59,102.46 172.59,102.46C174.229,104.286 175.826,106.183 177.412,108.121L184.744,117.154L197.25,132.214L198.826,132.52L199.221,134.727C204.412,131.901 209.484,128.885 214.426,125.691C217.545,123.624 220.59,121.463 223.596,119.257L224.428,118.811C225.424,122.981 226.297,127.187 227.033,131.426C227.744,135.28 228.354,139.162 228.846,143.066L230.281,143.193L230.41,144.867L209.496,168.349ZM200.424,174.964L183.529,181.026C189.311,178.521 195.162,176.159 201.086,173.962C200.867,174.296 200.643,174.629 200.424,174.964ZM121.613,148.787C125.223,152.345 128.77,155.975 132.242,159.683C135.734,163.328 139.146,167.06 142.502,170.85L140.813,170.356L121.547,148.727L121.613,148.787ZM170.926,93.743L171.117,93.961L159.859,109.243C160.162,108.794 160.455,108.339 160.76,107.892C163.977,103.073 167.367,98.351 170.926,93.743ZM228.248,116.765L229.451,132.408C228.779,127.985 227.982,123.587 227.027,119.23L226.91,118.702L225.521,118.226L228.248,116.765ZM224.715,112.985C216.273,115.274 208.154,118.562 200.602,122.78L200.064,123.081C200.045,123.612 200.037,124.137 200.021,124.666L198.266,122.281L199.6,121.524L185.07,104.369L174.26,89.695L173.111,91.255L170.5,91.65L169.564,90.526C161.438,100.393 154.068,110.825 147.545,121.716L147.109,122.446L147.17,122.558C137.164,119.023 115.875,108.738 115.875,108.738L115.764,110.169L112.961,146.603L140.111,177.088L140.535,177.563L142.752,178.358L141.104,179.688L155.35,184.495L167.371,188.399L167.953,187.4L171.76,188.766L171.76,198.381L176.76,198.381L176.76,188.766L207.385,177.779L207.984,177.563L235.559,146.603L232.645,108.738L224.715,112.985Z" style="fill:rgb(35,31,32);fill-rule:nonzero;"/>
        <path d="M141.742,95.315L135.453,91.019L135.904,90.283L141.742,95.315ZM219.619,99.839L217.781,97.92L218.18,97.622L212.719,92.636L211.832,91.711L214.318,89.471L219.619,99.839ZM133.184,94.725L142.918,101.749L144.293,102.742C144.6,102.954 145.039,103.311 145.873,103.635C146.293,103.791 146.838,103.923 147.441,103.924L147.67,103.917L155.691,94.107C161.084,88.531 166.24,82.703 171.047,76.662L171.799,75.723L171.643,75.301L174.873,71.492L199.182,101.632L198.883,101.919L199.041,102.642C192.881,95.107 186.383,87.875 179.566,80.986L178.945,80.358L174.367,81.457C179.824,86.702 185.098,92.163 190.172,97.826C194.49,102.54 198.676,107.394 202.705,112.393L205.602,110.943C203.715,108.47 201.791,106.029 199.834,103.617L207.029,96.476L210.732,92.714L215.656,97.707L220.814,102.82L221.061,102.661L222.146,104.785L226.6,102.508L215.807,81.398L200.447,95.237L174.971,63.648L169.652,69.917L169.58,69.717C168.865,70.668 168.143,71.612 167.418,72.553L152.311,90.364C151.426,91.307 150.531,92.243 149.629,93.172L148.404,94.456L134.713,82.654L122.168,103.139L126.432,105.75L133.184,94.725Z" style="fill:rgb(35,31,32);fill-rule:nonzero;"/>
        <path d="M145.488,76.906L155.674,68.254L155.951,69.847C155.813,69.966 156.244,71.541 156.244,71.541L156.578,73.466L163.469,65.652C166.764,62.471 169.836,59.079 172.646,55.496L172.961,55.092L172.906,54.949L176.057,51.377L194.023,73.473L178.918,59.323L178.453,58.887L175.156,59.783L187.451,70.97L197.891,80.255L199.785,78.871L194.213,73.649L195.09,70.387L197.094,72.5L201.434,76.974L202.322,76.42L195.469,68.979L196.102,66.624L205.389,76.332L209,72.877L193.578,56.753L192.357,61.297C187.803,56.518 183.588,51.383 179.826,45.898L179.531,45.467L177.75,45.533L176.211,43.641L159.723,62.341L158.854,57.326L142.045,73.28L145.488,76.906Z" style="fill:rgb(35,31,32);fill-rule:nonzero;"/>
        <path d="M168.934,188.321L167.875,187.831L168.629,193.457L169.314,198.178L170.115,198.233L168.959,188.538L168.934,188.321Z" style="fill:rgb(35,31,32);fill-rule:nonzero;"/>
        <path d="M171.479,110.306L167.158,111.08L181.621,126.784L193.926,139.847L196.508,138.291L172.023,110.916L171.479,110.306Z" style="fill:rgb(35,31,32);fill-rule:nonzero;"/>
        <path d="M120.029,65.245L92.08,44.552L91.457,44.09L87.599,45.635L104.02,57.427L117.934,67.183L120.029,65.245Z" style="fill:rgb(35,31,32);fill-rule:nonzero;"/>
        <path d="M236.908,0.916L221.961,25.278L209.629,45.899L212.574,48.656L238.895,7.123L239.482,6.197L236.908,0.916Z" style="fill:rgb(35,31,32);fill-rule:nonzero;"/>
        <path d="M257.329,59.507L247.391,68.248L239.121,75.69L240.047,77.312L257.363,62.525L257.747,62.195L257.329,59.507Z" style="fill:rgb(35,31,32);fill-rule:nonzero;"/>
        <path d="M141.502,37.344L142.824,36.79L133.199,22.215L132.984,21.89L130.897,21.954L136.615,30.345L141.502,37.344Z" style="fill:rgb(35,31,32);fill-rule:nonzero;"/>
        <path d="M9.935,212.201L13.138,212.168C60.959,211.718 108.77,213.898 156.254,212.969L154.582,218.783C131.275,219.54 107.938,219.475 84.63,219.435C56.894,219.226 29.16,218.876 1.595,219.637L9.935,212.201Z" style="fill:rgb(35,31,32);fill-rule:nonzero;"/>
        <path d="M337.166,217.296L333.969,217.354C286.207,218.192 238.432,217.704 190.844,218.781L192.502,212.962C215.791,212.133 239.1,211.717 262.396,211.291C290.123,210.941 317.846,210.664 345.48,209.826L337.166,217.296Z" style="fill:rgb(35,31,32);fill-rule:nonzero;"/>
        <path d="M5.226,348.737L7.218,348.716C36.984,348.416 66.716,349.199 96.375,348.731L95.302,352.345C80.794,352.72 66.269,352.882 51.755,352.956C34.478,352.935 17.236,352.971 0,353.337L5.226,348.737Z" style="fill:rgb(35,31,32);fill-rule:nonzero;"/>
        <path d="M7.324,363.959L9.394,363.839C24.867,362.987 40.392,362.78 55.849,362.626C71.306,362.478 86.693,362.059 102.057,361.063L101.135,364.872C86.076,366.032 70.947,366.615 55.843,366.961C46.855,367.129 37.882,367.278 28.933,367.586C19.982,367.894 11.05,368.365 2.13,369.001L7.324,363.959Z" style="fill:rgb(35,31,32);fill-rule:nonzero;"/>
        <path d="M339.662,351.18L337.764,351.236C323.58,351.642 309.381,351.963 295.174,352.036C280.967,352.113 266.777,352.018 252.594,351.963L253.676,348.532C267.521,348.406 281.373,348.316 295.203,348.06C311.664,347.859 328.109,347.316 344.572,346.699L339.662,351.18Z" style="fill:rgb(35,31,32);fill-rule:nonzero;"/>
        <path d="M341.553,365.122L338.826,365.089C298.094,364.623 293.352,364.958 252.52,364.347L254.129,359.432C274.021,359.468 293.906,359.265 313.799,359.061C337.477,358.952 325.162,358.809 348.885,358.995L341.553,365.122Z" style="fill:rgb(35,31,32);fill-rule:nonzero;"/>
    </g>
</svg>
